HIERARCHY
ROOT Hips
{
	OFFSET -0.001795 -0.223333 0.028219
	CHANNELS 6 Xposition Yposition Zposition Zrotation Yrotation Xrotation 
	JOINT LeftUpLeg
	{
		OFFSET 0.069520 -0.091406 -0.006815
		CHANNELS 3 Zrotation Yrotation Xrotation
		JOINT LeftLeg
		{
			OFFSET 0.034277 -0.375199 -0.004496
			CHANNELS 3 Zrotation Yrotation Xrotation
			JOINT LeftFoot
			{
				OFFSET -0.013596 -0.397961 -0.043693
				CHANNELS 3 Zrotation Yrotation Xrotation
				JOINT LeftToe
				{
					OFFSET 0.026358 -0.055791 0.119288
					CHANNELS 3 Zrotation Yrotation Xrotation
					End Site
					{
						OFFSET 0.000000 0.000000 0.000000
					}
				}
			}
		}
	}
	JOINT RightUpLeg
	{
		OFFSET -0.067670 -0.090522 -0.004320
		CHANNELS 3 Zrotation Yrotation Xrotation
		JOINT RightLeg
		{
			OFFSET -0.038290 -0.382569 -0.008850
			CHANNELS 3 Zrotation Yrotation Xrotation
			JOINT RightFoot
			{
				OFFSET 0.015774 -0.398415 -0.042312
				CHANNELS 3 Zrotation Yrotation Xrotation
				JOINT RightToe
				{
					OFFSET -0.025372 -0.048144 0.123348
					CHANNELS 3 Zrotation Yrotation Xrotation
					End Site
					{
						OFFSET 0.000000 0.000000 0.000000
					}
				}
			}
		}
	}
	JOINT Spine
	{
		OFFSET -0.002533 0.108963 -0.026696
		CHANNELS 3 Zrotation Yrotation Xrotation
		JOINT Spine1
		{
			OFFSET 0.005487 0.135180 0.001092
			CHANNELS 3 Zrotation Yrotation Xrotation
			JOINT Spine2
			{
				OFFSET 0.001457 0.052922 0.025425
				CHANNELS 3 Zrotation Yrotation Xrotation
				JOINT Neck
				{
					OFFSET -0.002778 0.213870 -0.042857
					CHANNELS 3 Zrotation Yrotation Xrotation
					JOINT Head
					{
						OFFSET 0.005152 0.064970 0.051349
						CHANNELS 3 Zrotation Yrotation Xrotation
						End Site
						{
							OFFSET 0.000000 0.000000 0.000000
						}
					}
				}
				JOINT LeftShoulder
				{
					OFFSET 0.078845 0.121749 -0.034090
					CHANNELS 3 Zrotation Yrotation Xrotation
					JOINT LeftArm
					{
						OFFSET 0.090977 0.030469 -0.008868
						CHANNELS 3 Zrotation Yrotation Xrotation
						JOINT LeftForeArm
						{
							OFFSET 0.259612 -0.012772 -0.027456
							CHANNELS 3 Zrotation Yrotation Xrotation
							JOINT LeftHand
							{
								OFFSET 0.249234 0.008986 -0.001171
								CHANNELS 3 Zrotation Yrotation Xrotation
								End Site
								{
									OFFSET 0.000000 0.000000 0.000000
								}
							}
						}
					}
				}
				JOINT RightShoulder
				{
					OFFSET -0.081759 0.118833 -0.038615
					CHANNELS 3 Zrotation Yrotation Xrotation
					JOINT RightArm
					{
						OFFSET -0.096012 0.032551 -0.009143
						CHANNELS 3 Zrotation Yrotation Xrotation
						JOINT RightForeArm
						{
							OFFSET -0.253742 -0.013329 -0.021401
							CHANNELS 3 Zrotation Yrotation Xrotation
							JOINT RightHand
							{
								OFFSET -0.255298 0.007772 -0.005559
								CHANNELS 3 Zrotation Yrotation Xrotation
								End Site
								{
									OFFSET 0.000000 0.000000 0.000000
								}
							}
						}
					}
				}
			}
		}
	}
}
MOTION
Frames: 16
Frame Time: 0.050000
0.000000 0.938983 0.000000 -1.668169 1.180054 5.515248 4.567727 -0.256126 -2.472903 -0.010110 0.191768 -5.681426 2.148215 7.167232 8.008666 0.000000 0.000000 0.000000 -3.664032 0.515254 -5.646123 0.893539 -0.142742 -1.516183 -1.675743 -6.730680 7.283054 0.000000 0.000000 0.000000 0.938658 0.040632 -1.372960 -0.292264 0.201561 -2.346226 -0.603176 -0.684207 6.915433 1.768660 -0.006710 -15.377936 0.000000 0.000000 0.000000 -21.908924 -2.762237 -0.504417 -56.230492 -5.794988 -4.189014 -10.640879 -24.185083 3.240545 0.000000 0.000000 0.000000 19.326324 2.785823 -0.205367 57.782842 8.303758 -1.801704 9.304450 25.271738 2.811118 0.000000 0.000000 0.000000 
-0.000540 0.937847 -0.000109 -1.853129 0.367030 5.859126 4.558717 -0.226578 -1.939765 1.003826 0.186811 -6.881740 2.169177 7.235355 8.362006 0.000000 0.000000 0.000000 -3.931559 0.537457 -5.898613 1.443339 -0.185080 -1.286041 -0.880513 -4.795431 6.352816 0.000000 0.000000 0.000000 0.958949 0.072099 -2.027808 -0.714111 0.368037 -1.529738 -0.008107 -0.910246 6.112288 0.562888 0.681688 -15.648384 0.000000 0.000000 0.000000 -21.549779 -1.324061 -1.097802 -56.242759 -5.567244 -4.248267 -14.712184 -28.744171 4.999626 0.000000 0.000000 0.000000 18.318767 3.130869 -0.182503 58.112465 8.602528 -1.546795 13.371035 29.098544 4.219325 0.000000 0.000000 0.000000 
-0.000830 0.938346 -0.000657 -1.348115 0.759823 5.715955 4.332482 -0.240531 -2.227116 0.430510 0.169896 -5.734955 1.812789 6.481402 7.797465 0.000000 0.000000 0.000000 -4.334995 0.540303 -6.129670 1.685111 -0.190788 -0.541450 -1.571412 -6.426683 6.886485 0.000000 0.000000 0.000000 0.392628 0.066080 -1.756356 -0.410390 0.252699 -2.381659 -0.435374 -1.509642 5.926224 -0.653541 1.245978 -12.865973 0.000000 0.000000 0.000000 -21.447798 -1.001884 -1.195893 -55.658095 -5.746987 -4.125442 -16.274030 -34.817393 6.686715 0.000000 0.000000 0.000000 19.094049 3.953710 0.121428 56.087487 8.355244 -1.601030 17.670799 35.325486 6.540149 0.000000 0.000000 0.000000 
-0.001219 0.937855 -0.001299 -1.571320 0.858783 5.623139 4.765179 -0.268916 -2.730022 0.196221 0.170462 -5.386666 2.237066 7.190032 7.627083 0.000000 0.000000 0.000000 -4.491413 0.566131 -6.632494 2.243743 -0.240232 -0.162070 -1.935307 -7.280893 7.196177 0.000000 0.000000 0.000000 0.300979 0.073643 -1.901055 -0.971175 0.500331 -2.203030 0.241784 -1.857944 5.607199 -0.998618 1.375135 -11.740354 0.000000 0.000000 0.000000 -19.433578 -0.722399 -1.087461 -56.937316 -6.150204 -3.976988 -21.672172 -44.944447 11.280400 0.000000 0.000000 0.000000 18.077642 4.133526 0.167604 54.809679 9.479774 -1.014987 25.096718 43.857307 11.270349 0.000000 0.000000 0.000000 
-0.001679 0.937977 -0.002210 -1.433667 1.262435 5.250627 4.449825 -0.243433 -2.280277 0.395509 0.159209 -5.404023 2.090092 7.046468 7.919346 0.000000 0.000000 0.000000 -4.794882 0.525316 -6.195413 2.295680 -0.247033 -0.100588 -2.034555 -7.454921 7.190393 0.000000 0.000000 0.000000 0.071378 0.064719 -1.630065 -0.702516 0.373199 -1.806689 -0.112305 -1.971353 5.209878 -1.143721 1.454614 -11.073740 0.000000 0.000000 0.000000 -18.967215 -0.325163 -1.323810 -55.654507 -6.656448 -3.622778 -34.254936 -56.543858 21.853275 0.000000 0.000000 0.000000 17.670496 3.627180 -0.035856 53.413454 10.541641 -0.509504 37.750452 55.472972 21.833275 0.000000 0.000000 0.000000 
-0.001980 0.938217 -0.003289 -1.630809 0.996671 5.265896 4.508957 -0.259364 -2.622528 0.356832 0.135678 -4.692598 2.263366 7.214146 7.501817 0.000000 0.000000 0.000000 -4.672056 0.549312 -6.510153 2.344479 -0.239852 0.488588 -2.091553 -7.505019 6.853806 0.000000 0.000000 0.000000 -0.123385 0.079232 -1.928330 -0.493840 0.280386 -1.913845 0.034793 -1.537253 5.579822 -0.474288 0.988085 -10.300400 0.000000 0.000000 0.000000 -18.003187 0.072224 -1.506836 -55.334814 -7.369071 -3.293915 -53.753591 -64.415546 39.224095 0.000000 0.000000 0.000000 16.878403 3.783075 0.181701 51.297037 12.378462 0.208020 55.795929 66.695910 40.600103 0.000000 0.000000 0.000000 
-0.002150 0.938556 -0.004516 -1.478723 0.797022 5.157028 4.199135 -0.258719 -2.689944 0.319790 0.137284 -4.670179 2.413941 7.599125 7.985243 0.000000 0.000000 0.000000 -4.836708 0.549013 -6.566154 2.126266 -0.204245 1.010753 -1.493847 -6.157592 6.563049 0.000000 0.000000 0.000000 -0.187457 0.076814 -1.848277 -0.660539 0.347799 -1.600463 0.146983 -1.579438 5.124653 -0.933797 1.260737 -9.827616 0.000000 0.000000 0.000000 -17.010976 -0.238067 -1.231757 -54.978990 -9.688492 -2.158954 -73.704547 -68.545958 58.663018 0.000000 0.000000 0.000000 15.978998 4.213909 0.411494 50.138058 15.078806 1.345990 79.553275 71.866069 64.762567 0.000000 0.000000 0.000000 
-0.002217 0.938980 -0.005836 -1.436095 0.670283 4.931964 4.030559 -0.263289 -2.841289 0.418448 0.107873 -4.053436 2.331539 7.386541 7.762615 0.000000 0.000000 0.000000 -4.664228 0.557483 -6.666866 1.971546 -0.168822 1.804973 -1.709919 -6.443084 5.940695 0.000000 0.000000 0.000000 -0.095983 0.079133 -1.925836 -0.826507 0.420424 -1.471599 0.063029 -1.568623 5.073622 -1.039166 1.309595 -9.404744 0.000000 0.000000 0.000000 -15.903943 -1.289183 -0.599682 -55.645703 -13.308246 -0.450517 -89.263736 -70.693721 75.125390 0.000000 0.000000 0.000000 15.097273 4.818167 0.765295 49.035768 18.632737 2.731534 97.897852 73.124633 83.708054 0.000000 0.000000 0.000000 
-0.002227 0.939420 -0.007049 -1.457619 0.315897 4.847265 3.840215 -0.253479 -2.727465 0.672127 0.087796 -4.007676 2.472310 7.576214 7.641524 0.000000 0.000000 0.000000 -4.720185 0.579215 -7.016624 1.954509 -0.152061 2.386542 -1.334747 -5.627512 5.871719 0.000000 0.000000 0.000000 -0.047269 0.067286 -1.633757 -1.002766 0.505116 -1.771090 0.118043 -1.326922 4.935071 -1.061762 1.320864 -9.245172 0.000000 0.000000 0.000000 -14.965486 -2.599845 0.107913 -56.927817 -16.573919 1.207653 -97.957272 -71.928774 85.085906 0.000000 0.000000 0.000000 14.261788 6.032934 1.417543 47.593974 22.463467 4.136564 106.477627 73.626470 93.176105 0.000000 0.000000 0.000000 
-0.002246 0.939692 -0.008085 -1.483561 0.069151 4.663887 3.706567 -0.250319 -2.733035 0.837569 0.068917 -3.847533 2.430199 7.512247 7.743859 0.000000 0.000000 0.000000 -4.677331 0.575093 -6.924362 1.822176 -0.129911 2.570614 -1.485459 -5.997210 5.937299 0.000000 0.000000 0.000000 0.219407 0.067478 -1.700338 -1.187169 0.588047 -1.764628 -0.193281 -1.192595 4.979999 -1.051839 1.315811 -9.179045 0.000000 0.000000 0.000000 -14.101165 -3.659683 0.663558 -57.707400 -19.361001 2.676203 -104.079146 -72.883065 92.463040 0.000000 0.000000 0.000000 13.207869 7.138991 2.011528 46.418223 25.828643 5.295435 112.063201 74.582539 100.268869 0.000000 0.000000 0.000000 
-0.002345 0.939829 -0.008894 -1.493817 -0.234801 4.440073 3.857965 -0.234146 -2.518388 0.779373 0.065040 -3.656165 2.433898 7.433977 7.508413 0.000000 0.000000 0.000000 -4.644060 0.583519 -7.048625 1.725193 -0.103497 3.088696 -1.310199 -5.597963 5.817746 0.000000 0.000000 0.000000 0.285366 0.061676 -1.572428 -1.498957 0.728712 -1.753408 0.033590 -1.230347 4.865933 -1.281278 1.433071 -8.676749 0.000000 0.000000 0.000000 -13.770980 -4.435453 1.100329 -57.907660 -20.640461 3.371277 -110.806813 -72.933178 99.912981 0.000000 0.000000 0.000000 12.289781 8.085442 2.439163 45.428784 28.791031 6.292749 112.687786 76.348901 102.647058 0.000000 0.000000 0.000000 
-0.002484 0.940041 -0.009539 -1.462612 -0.325957 4.440825 3.835216 -0.232226 -2.497210 0.917458 0.054728 -3.665440 2.247423 7.110719 7.563459 0.000000 0.000000 0.000000 -4.692703 0.583390 -7.052747 1.764466 -0.106814 3.139731 -1.422405 -5.782786 5.621285 0.000000 0.000000 0.000000 0.223761 0.074090 -1.842430 -1.479430 0.716064 -1.432415 0.061950 -1.262885 4.546096 -1.374290 1.490348 -8.651063 0.000000 0.000000 0.000000 -13.250993 -5.005681 1.398468 -57.886430 -21.530748 3.875172 -116.579674 -73.446161 106.861576 0.000000 0.000000 0.000000 11.686100 8.567873 2.657305 44.594227 30.794429 6.927787 111.851518 78.678623 104.084005 0.000000 0.000000 0.000000 
-0.002720 0.940007 -0.010125 -1.462062 -0.518755 4.307463 3.704338 -0.218609 -2.308735 1.077519 0.042182 -3.665961 2.261987 7.142653 7.636807 0.000000 0.000000 0.000000 -4.643178 0.586864 -7.087299 1.689048 -0.085353 3.561377 -1.275908 -5.461212 5.580105 0.000000 0.000000 0.000000 0.200379 0.082025 -2.014340 -1.584720 0.762443 -1.270204 0.392884 -1.437456 4.429101 -1.593325 1.600594 -8.180660 0.000000 0.000000 0.000000 -13.159869 -5.105649 1.507831 -57.631035 -21.779520 3.995267 -123.663899 -72.904587 114.662301 0.000000 0.000000 0.000000 11.228592 9.118923 2.859120 43.924755 32.141348 7.302931 111.356909 81.063687 105.789281 0.000000 0.000000 0.000000 
-0.002981 0.939825 -0.010780 -1.496761 -0.489396 4.150559 3.649973 -0.213664 -2.250116 1.590554 0.005577 -3.719995 2.006444 6.662385 7.526762 0.000000 0.000000 0.000000 -4.486673 0.575770 -6.873005 1.732887 -0.094317 3.449651 -1.414987 -5.700845 5.394496 0.000000 0.000000 0.000000 0.066338 0.085421 -2.075693 -1.447655 0.697538 -1.047196 0.532881 -1.462558 4.237094 -1.727497 1.678770 -7.837344 0.000000 0.000000 0.000000 -12.849543 -5.315904 1.615667 -57.542017 -22.375405 4.317963 -130.808791 -72.733527 123.028498 0.000000 0.000000 0.000000 11.091117 9.282092 2.926223 43.305706 32.906482 7.465028 112.994266 82.651026 109.072419 0.000000 0.000000 0.000000 
-0.003257 0.939455 -0.011382 -1.572030 -0.392175 4.214679 3.648145 -0.217994 -2.304771 1.774130 -0.007622 -3.728264 1.982080 6.617793 7.496486 0.000000 0.000000 0.000000 -4.371774 0.576591 -6.840836 1.728383 -0.094605 3.433578 -1.456159 -5.718580 5.202731 0.000000 0.000000 0.000000 0.048880 0.099044 -2.402532 -1.331009 0.642161 -0.918261 0.671221 -1.516848 4.125107 -1.706906 1.647088 -7.444858 0.000000 0.000000 0.000000 -12.793860 -4.872152 1.407108 -57.577048 -22.365154 4.331871 -137.789031 -72.310206 131.309751 0.000000 0.000000 0.000000 11.386105 9.131177 2.841664 43.301067 33.093824 7.546872 117.075593 83.438951 114.119085 0.000000 0.000000 0.000000 
-0.003477 0.939059 -0.011915 -1.570354 -0.140575 4.321131 3.669742 -0.230284 -2.471479 1.756367 -0.004386 -3.748667 1.858019 6.316727 7.157510 0.000000 0.000000 0.000000 -4.432650 0.570598 -6.789061 1.901459 -0.119658 3.423780 -1.685722 -6.147553 5.010704 0.000000 0.000000 0.000000 -0.106415 0.109908 -2.672697 -1.225661 0.592968 -0.872178 0.700222 -1.511572 3.931213 -1.768764 1.682666 -7.047175 0.000000 0.000000 0.000000 -12.457280 -4.506498 1.214767 -57.639687 -22.362726 4.359999 -145.373118 -72.003968 140.690071 0.000000 0.000000 0.000000 11.885516 9.007958 2.791200 43.279165 32.712202 7.422428 130.006435 83.326628 127.903863 0.000000 0.000000 0.000000 
